<svg xmlns="http://www.w3.org/2000/svg" xmlns:xlink="http://www.w3.org/1999/xlink" width="500" zoomAndPan="magnify" viewBox="0 0 375 374.999991" height="500" preserveAspectRatio="xMidYMid meet" version="1.0"><defs><clipPath id="c78dd6d0ee"><path d="M 52.402344 168 L 87 168 L 87 236 L 52.402344 236 Z M 52.402344 168 " clip-rule="nonzero"/></clipPath><clipPath id="44725cdd78"><path d="M 288 168 L 322.402344 168 L 322.402344 236 L 288 236 Z M 288 168 " clip-rule="nonzero"/></clipPath><clipPath id="7ad3797d36"><path d="M 174 79.375 L 201 79.375 L 201 105 L 174 105 Z M 174 79.375 " clip-rule="nonzero"/></clipPath></defs><rect x="-37.5" width="450" fill="#ffffff" y="-37.499999" height="449.999989" fill-opacity="1"/><rect x="-37.5" width="450" fill="#ffffff" y="-37.499999" height="449.999989" fill-opacity="1"/><rect x="-37.5" width="450" fill="#303579" y="-37.499999" height="449.999989" fill-opacity="1"/><path fill="#ffffff" d="M 225.492188 201.804688 C 220.828125 201.804688 217.046875 198.023438 217.046875 193.359375 C 217.046875 188.699219 220.828125 184.917969 225.492188 184.917969 C 230.152344 184.917969 233.933594 188.699219 233.933594 193.359375 C 233.933594 198.023438 230.152344 201.804688 225.492188 201.804688 Z M 187.496094 229.199219 C 175.835938 229.199219 166.386719 221.640625 166.386719 212.3125 L 208.605469 212.3125 C 208.605469 221.640625 199.152344 229.199219 187.496094 229.199219 Z M 149.5 201.804688 C 144.839844 201.804688 141.058594 198.023438 141.058594 193.359375 C 141.058594 188.699219 144.839844 184.917969 149.5 184.917969 C 154.164062 184.917969 157.945312 188.699219 157.945312 193.359375 C 157.945312 198.023438 154.164062 201.804688 149.5 201.804688 Z M 221.269531 151.144531 L 153.722656 151.144531 C 139.734375 151.144531 127.066406 156.8125 117.902344 165.980469 C 108.730469 175.148438 103.0625 187.816406 103.0625 201.804688 C 103.0625 229.785156 125.742188 252.464844 153.722656 252.464844 L 221.269531 252.464844 C 235.257812 252.464844 247.921875 246.792969 257.089844 237.625 C 266.257812 228.457031 271.929688 215.792969 271.929688 201.804688 C 271.929688 173.824219 249.25 151.144531 221.269531 151.144531 " fill-opacity="1" fill-rule="nonzero"/><path fill="#ffffff" d="M 187.496094 286.238281 L 162.164062 286.238281 C 150.769531 286.238281 139.710938 284.003906 129.300781 279.601562 C 119.246094 275.347656 110.214844 269.257812 102.460938 261.507812 C 94.707031 253.753906 88.621094 244.726562 84.367188 234.671875 C 79.964844 224.257812 77.730469 213.199219 77.730469 201.804688 C 77.730469 190.40625 79.964844 179.347656 84.367188 168.9375 C 88.621094 158.882812 94.707031 149.851562 102.460938 142.101562 C 110.214844 134.347656 119.246094 128.261719 129.300781 124.007812 C 139.710938 119.601562 150.769531 117.371094 162.164062 117.371094 L 212.824219 117.371094 C 224.222656 117.371094 235.28125 119.601562 245.691406 124.007812 C 255.746094 128.261719 264.777344 134.347656 272.527344 142.101562 C 280.28125 149.851562 286.371094 158.882812 290.621094 168.9375 C 295.027344 179.347656 297.257812 190.40625 297.257812 201.804688 L 288.816406 201.804688 C 288.816406 159.902344 254.726562 125.8125 212.824219 125.8125 L 162.164062 125.8125 C 120.265625 125.8125 86.175781 159.902344 86.175781 201.804688 C 86.175781 243.703125 120.265625 277.792969 162.164062 277.792969 L 187.496094 277.792969 L 187.496094 286.238281 " fill-opacity="1" fill-rule="nonzero"/><g clip-path="url(#c78dd6d0ee)"><path fill="#ffffff" d="M 86.175781 235.578125 C 67.523438 235.578125 52.402344 220.457031 52.402344 201.804688 C 52.402344 183.152344 67.523438 168.03125 86.175781 168.03125 L 86.175781 235.578125 " fill-opacity="1" fill-rule="nonzero"/></g><g clip-path="url(#44725cdd78)"><path fill="#ffffff" d="M 288.816406 235.578125 C 307.46875 235.578125 322.589844 220.457031 322.589844 201.804688 C 322.589844 183.152344 307.46875 168.03125 288.816406 168.03125 L 288.816406 235.578125 " fill-opacity="1" fill-rule="nonzero"/></g><path fill="#ffffff" d="M 208.605469 155.363281 C 208.605469 164.691406 199.152344 172.25 187.496094 172.25 C 175.835938 172.25 166.386719 164.691406 166.386719 155.363281 C 166.386719 146.039062 175.835938 138.476562 187.496094 138.476562 C 199.152344 138.476562 208.605469 146.039062 208.605469 155.363281 " fill-opacity="1" fill-rule="nonzero"/><g clip-path="url(#7ad3797d36)"><path fill="#ffffff" d="M 200.160156 92.039062 C 200.160156 99.035156 194.492188 104.703125 187.496094 104.703125 C 180.5 104.703125 174.832031 99.035156 174.832031 92.039062 C 174.832031 85.046875 180.5 79.375 187.496094 79.375 C 194.492188 79.375 200.160156 85.046875 200.160156 92.039062 " fill-opacity="1" fill-rule="nonzero"/></g><path fill="#ffffff" d="M 212.824219 282.015625 C 212.824219 291.34375 203.375 298.902344 191.71875 298.902344 C 180.058594 298.902344 170.609375 291.34375 170.609375 282.015625 C 170.609375 272.6875 180.058594 265.128906 191.71875 265.128906 C 203.375 265.128906 212.824219 272.6875 212.824219 282.015625 " fill-opacity="1" fill-rule="nonzero"/><path fill="#ffffff" d="M 191.71875 168.210938 L 183.273438 168.210938 L 183.273438 92.039062 L 191.71875 92.039062 L 191.71875 168.210938 " fill-opacity="1" fill-rule="nonzero"/></svg>