<svg xmlns="http://www.w3.org/2000/svg" xmlns:xlink="http://www.w3.org/1999/xlink" width="500" zoomAndPan="magnify" viewBox="0 0 375 374.999991" height="500" preserveAspectRatio="xMidYMid meet" version="1.0"><defs><clipPath id="e63d55d623"><path d="M 31.414062 164 L 71 164 L 71 243 L 31.414062 243 Z M 31.414062 164 " clip-rule="nonzero"/></clipPath><clipPath id="58ba18f366"><path d="M 304 164 L 343.414062 164 L 343.414062 243 L 304 243 Z M 304 164 " clip-rule="nonzero"/></clipPath><clipPath id="f6667187a5"><path d="M 172 62.320312 L 203 62.320312 L 203 92 L 172 92 Z M 172 62.320312 " clip-rule="nonzero"/></clipPath><clipPath id="1d1bd9356e"><path d="M 167 276 L 217 276 L 217 315.820312 L 167 315.820312 Z M 167 276 " clip-rule="nonzero"/></clipPath></defs><rect x="-37.5" width="450" fill="#ffffff" y="-37.499999" height="449.999989" fill-opacity="1"/><rect x="-37.5" width="450" fill="#ffffff" y="-37.499999" height="449.999989" fill-opacity="1"/><rect x="-37.5" width="450" fill="#303579" y="-37.499999" height="449.999989" fill-opacity="1"/><path fill="#ffffff" d="M 231.390625 203.773438 C 226.003906 203.773438 221.636719 199.40625 221.636719 194.019531 C 221.636719 188.632812 226.003906 184.261719 231.390625 184.261719 C 236.777344 184.261719 241.148438 188.632812 241.148438 194.019531 C 241.148438 199.40625 236.777344 203.773438 231.390625 203.773438 Z M 187.496094 235.425781 C 174.023438 235.425781 163.105469 226.691406 163.105469 215.914062 L 211.882812 215.914062 C 211.882812 226.691406 200.964844 235.425781 187.496094 235.425781 Z M 143.597656 203.773438 C 138.210938 203.773438 133.839844 199.40625 133.839844 194.019531 C 133.839844 188.632812 138.210938 184.261719 143.597656 184.261719 C 148.984375 184.261719 153.351562 188.632812 153.351562 194.019531 C 153.351562 199.40625 148.984375 203.773438 143.597656 203.773438 Z M 226.515625 145.242188 L 148.472656 145.242188 C 132.3125 145.242188 117.679688 151.792969 107.085938 162.386719 C 96.496094 172.980469 89.941406 187.613281 89.941406 203.773438 C 89.941406 236.101562 116.148438 262.304688 148.472656 262.304688 L 226.515625 262.304688 C 242.675781 262.304688 257.308594 255.753906 267.902344 245.160156 C 278.496094 234.570312 285.046875 219.9375 285.046875 203.773438 C 285.046875 171.445312 258.839844 145.242188 226.515625 145.242188 " fill-opacity="1" fill-rule="nonzero"/><path fill="#ffffff" d="M 187.496094 301.324219 L 158.230469 301.324219 C 145.0625 301.324219 132.285156 298.746094 120.257812 293.65625 C 108.640625 288.742188 98.207031 281.710938 89.25 272.753906 C 80.292969 263.796875 73.257812 253.363281 68.347656 241.746094 C 63.257812 229.71875 60.675781 216.941406 60.675781 203.773438 C 60.675781 190.605469 63.257812 177.832031 68.347656 165.800781 C 73.257812 154.183594 80.292969 143.75 89.25 134.792969 C 98.207031 125.835938 108.640625 118.804688 120.257812 113.890625 C 132.285156 108.800781 145.0625 106.222656 158.230469 106.222656 L 216.757812 106.222656 C 229.925781 106.222656 242.703125 108.800781 254.730469 113.890625 C 266.347656 118.804688 276.78125 125.835938 285.738281 134.792969 C 294.695312 143.75 301.730469 154.183594 306.644531 165.800781 C 311.730469 177.832031 314.3125 190.605469 314.3125 203.773438 L 304.554688 203.773438 C 304.554688 155.363281 265.171875 115.976562 216.757812 115.976562 L 158.230469 115.976562 C 109.816406 115.976562 70.433594 155.363281 70.433594 203.773438 C 70.433594 252.183594 109.816406 291.570312 158.230469 291.570312 L 187.496094 291.570312 L 187.496094 301.324219 " fill-opacity="1" fill-rule="nonzero"/><g clip-path="url(#e63d55d623)"><path fill="#ffffff" d="M 70.433594 242.792969 C 48.882812 242.792969 31.414062 225.324219 31.414062 203.773438 C 31.414062 182.222656 48.882812 164.753906 70.433594 164.753906 L 70.433594 242.792969 " fill-opacity="1" fill-rule="nonzero"/></g><g clip-path="url(#58ba18f366)"><path fill="#ffffff" d="M 304.554688 242.792969 C 326.105469 242.792969 343.578125 225.324219 343.578125 203.773438 C 343.578125 182.222656 326.105469 164.753906 304.554688 164.753906 L 304.554688 242.792969 " fill-opacity="1" fill-rule="nonzero"/></g><path fill="#ffffff" d="M 211.882812 150.121094 C 211.882812 160.894531 200.964844 169.628906 187.496094 169.628906 C 174.023438 169.628906 163.105469 160.894531 163.105469 150.121094 C 163.105469 139.34375 174.023438 130.609375 187.496094 130.609375 C 200.964844 130.609375 211.882812 139.34375 211.882812 150.121094 " fill-opacity="1" fill-rule="nonzero"/><g clip-path="url(#f6667187a5)"><path fill="#ffffff" d="M 202.125 76.957031 C 202.125 85.039062 195.574219 91.589844 187.496094 91.589844 C 179.414062 91.589844 172.863281 85.039062 172.863281 76.957031 C 172.863281 68.875 179.414062 62.324219 187.496094 62.324219 C 195.574219 62.324219 202.125 68.875 202.125 76.957031 " fill-opacity="1" fill-rule="nonzero"/></g><g clip-path="url(#1d1bd9356e)"><path fill="#ffffff" d="M 216.757812 296.449219 C 216.757812 307.222656 205.839844 315.957031 192.371094 315.957031 C 178.902344 315.957031 167.984375 307.222656 167.984375 296.449219 C 167.984375 285.671875 178.902344 276.9375 192.371094 276.9375 C 205.839844 276.9375 216.757812 285.671875 216.757812 296.449219 " fill-opacity="1" fill-rule="nonzero"/></g><path fill="#ffffff" d="M 192.371094 164.960938 L 182.617188 164.960938 L 182.617188 76.957031 L 192.371094 76.957031 L 192.371094 164.960938 " fill-opacity="1" fill-rule="nonzero"/></svg>