<?xml version="1.0" encoding="UTF-8" standalone="no"?>
<!-- Created with Inkscape (http://www.inkscape.org/) -->

<svg
   width="24mm"
   height="24mm"
   viewBox="0 0 24 24"
   version="1.1"
   id="svg1"
   xml:space="preserve"
   xmlns="http://www.w3.org/2000/svg"
   xmlns:svg="http://www.w3.org/2000/svg"><defs
     id="defs1" /><g
     id="layer1"><g
       id="g3"
       transform="matrix(0.26458333,0,0,0.26458333,-2.1471241,-0.69459804)"
       style="fill:#ffffff"><path
         d="M 79.039,57.352 93.82,51.5239 c 1.375,-0.54688 1.375,-2.4922 0,-3.0391 L 79.039,42.6567 C 73.7421,40.5708 69.5468,36.3755 67.461,31.0787 l -5.8281,-14.781 c -0.27344,-0.6875 -0.89844,-1.0312 -1.5156,-1.0312 -0.61719,0 -1.25,0.34375 -1.5156,1.0312 l -5.8281,14.781 c -2.0859,5.2969 -6.2812,9.4922 -11.578,11.578 l -14.781,5.8281 c -1.375,0.54688 -1.375,2.4922 0,3.0391 l 14.781,5.8281 c 5.2969,2.0859 9.4922,6.2812 11.578,11.578 l 5.8281,14.781 c 0.27344,0.6875 0.89844,1.0312 1.5156,1.0312 0.61719,0 1.25,-0.34375 1.5156,-1.0312 L 67.461,68.93 c 2.0859,-5.2969 6.2812,-9.4922 11.578,-11.578 z"
         id="path1"
         style="fill:#ffffff" /><path
         d="m 24.102,35.664 -3.8906,-7.1172 c -0.05469,-0.10156 -0.14063,-0.1875 -0.25,-0.25 l -7.1172,-3.8906 c -1,-0.54688 -1,-1.9766 0,-2.5234 l 7.1172,-3.8906 c 0.10156,-0.05469 0.1875,-0.14063 0.24219,-0.24219 l 3.8906,-7.1172 c 0.54688,-1 1.9766,-1 2.5234,0 l 3.8906,7.1172 c 0.05469,0.10156 0.14063,0.1875 0.25,0.25 l 7.1172,3.8906 c 1,0.54688 1,1.9766 0,2.5234 l -7.1172,3.8906 c -0.10156,0.05469 -0.1875,0.14062 -0.24219,0.24219 l -3.8906,7.1172 c -0.54688,1 -1.9766,1 -2.5234,0 z"
         id="path2"
         style="fill:#ffffff" /><path
         d="M 21.195,85.508 18.2419,80.1096 C 18.19502,80.03147 18.13252,79.96898 18.0544,79.9221 L 12.656,76.969 c -0.75781,-0.41406 -0.75781,-1.5 0,-1.9141 l 5.3984,-2.9531 c 0.07812,-0.04687 0.14062,-0.10937 0.1875,-0.1875 0,0 2.9531,-5.3984 2.9531,-5.3984 0.41406,-0.75781 1.5,-0.75781 1.9141,0 l 2.9531,5.3984 c 0.04687,0.07813 0.10938,0.14063 0.1875,0.1875 l 5.3984,2.9531 c 0.75781,0.41406 0.75781,1.5 0,1.9141 l -5.3984,2.9531 c -0.07813,0.03906 -0.14062,0.10938 -0.1875,0.1875 l -2.9531,5.3984 c -0.41406,0.75781 -1.5,0.75781 -1.9141,0 z"
         id="path3"
         style="fill:#ffffff" /></g></g></svg>
