<svg xmlns="http://www.w3.org/2000/svg" xmlns:xlink="http://www.w3.org/1999/xlink" width="512" zoomAndPan="magnify" viewBox="0 0 384 383.999986" height="512" preserveAspectRatio="xMidYMid meet" version="1.0"><defs><clipPath id="98dc765a1d"><path d="M 175.355469 180.066406 L 199.355469 180.066406 L 199.355469 204 L 175.355469 204 Z M 175.355469 180.066406 " clip-rule="nonzero"/></clipPath><clipPath id="a32a3ed4bf"><path d="M 46 102 L 339 102 L 339 366.269531 L 46 366.269531 Z M 46 102 " clip-rule="nonzero"/></clipPath></defs><g clip-path="url(#98dc765a1d)"><path fill="#ffffff" d="M 175.355469 191.917969 C 175.355469 188.632812 176.859375 185.691406 179.011719 183.539062 C 181.164062 181.386719 184.105469 180.066406 187.390625 180.066406 C 190.675781 180.066406 193.613281 181.394531 195.765625 183.546875 C 197.917969 185.699219 199.207031 188.632812 199.207031 191.917969 C 199.207031 195.203125 198.054688 198.277344 195.902344 200.4375 C 193.75 202.59375 190.667969 203.910156 187.382812 203.910156 C 184.097656 203.910156 181.285156 202.324219 179.132812 200.171875 C 176.980469 198.019531 175.355469 195.203125 175.355469 191.917969 Z M 175.355469 191.917969 " fill-opacity="1" fill-rule="nonzero"/></g><path fill="#ffffff" d="M 367.878906 140.078125 L 308.777344 96.605469 L 308.777344 44.746094 C 308.777344 36.613281 302.179688 30.039062 294.058594 30.039062 L 270.140625 30.039062 C 262.007812 30.039062 255.421875 36.625 255.421875 44.746094 L 255.421875 57.34375 L 210.355469 24.199219 C 200.578125 16.992188 184.570312 16.992188 174.792969 24.199219 L 17.273438 140.078125 C 7.496094 147.277344 5.386719 161.175781 12.585938 170.964844 L 16.9375 176.875 C 24.125 186.664062 38.023438 188.78125 47.789062 181.582031 L 174.792969 88.117188 C 184.570312 80.917969 200.578125 80.917969 210.355469 88.117188 L 337.347656 181.582031 C 347.125 188.78125 361.015625 186.652344 368.203125 176.875 L 372.566406 170.964844 C 379.753906 161.175781 377.644531 147.277344 367.878906 140.078125 Z M 367.878906 140.078125 " fill-opacity="1" fill-rule="nonzero"/><g clip-path="url(#a32a3ed4bf)"><path fill="#ffffff" d="M 320.753906 189.714844 L 210.324219 108.097656 C 200.558594 100.875 184.59375 100.875 174.828125 108.097656 L 64.398438 189.714844 C 54.632812 196.933594 46.640625 207.496094 46.640625 213.21875 L 46.640625 331.550781 C 46.640625 350.761719 63.109375 366.34375 83.433594 366.34375 L 150.875 366.34375 L 150.875 261.667969 C 150.875 253.585938 157.496094 246.972656 165.582031 246.972656 L 219.546875 246.972656 C 227.632812 246.972656 234.253906 253.585938 234.253906 261.667969 L 234.253906 366.34375 L 301.707031 366.34375 C 322.019531 366.34375 338.476562 350.761719 338.476562 331.550781 L 338.476562 213.21875 C 338.488281 207.496094 330.519531 196.933594 320.753906 189.714844 Z M 320.753906 189.714844 " fill-opacity="1" fill-rule="nonzero"/></g></svg>