<svg xmlns="http://www.w3.org/2000/svg" xmlns:xlink="http://www.w3.org/1999/xlink" width="500" zoomAndPan="magnify" viewBox="0 0 375 374.999991" height="500" preserveAspectRatio="xMidYMid meet" version="1.0"><defs><clipPath id="6151cc65c2"><path d="M 91.835938 121 L 135 121 L 135 139 L 91.835938 139 Z M 91.835938 121 " clip-rule="nonzero"/></clipPath><clipPath id="926984525a"><path d="M 91.835938 179 L 135 179 L 135 196 L 91.835938 196 Z M 91.835938 179 " clip-rule="nonzero"/></clipPath><clipPath id="1cf8e7d3a6"><path d="M 91.835938 236 L 135 236 L 135 254 L 91.835938 254 Z M 91.835938 236 " clip-rule="nonzero"/></clipPath><clipPath id="7f4506adf5"><path d="M 113 82.515625 L 283.085938 82.515625 L 283.085938 292.515625 L 113 292.515625 Z M 113 82.515625 " clip-rule="nonzero"/></clipPath></defs><rect x="-37.5" width="450" fill="#ffffff" y="-37.499999" height="449.999989" fill-opacity="1"/><rect x="-37.5" width="450" fill="#303579" y="-37.499999" height="449.999989" fill-opacity="1"/><g clip-path="url(#6151cc65c2)"><path fill="#ffffff" d="M 100.203125 138.515625 L 126.015625 138.515625 C 130.632812 138.515625 134.367188 134.78125 134.367188 130.164062 C 134.367188 125.542969 130.632812 121.808594 126.015625 121.808594 L 100.203125 121.808594 C 95.582031 121.808594 91.847656 125.542969 91.847656 130.164062 C 91.847656 134.757812 95.605469 138.515625 100.203125 138.515625 Z M 100.203125 138.515625 " fill-opacity="1" fill-rule="nonzero"/></g><g clip-path="url(#926984525a)"><path fill="#ffffff" d="M 100.203125 195.839844 L 126.015625 195.839844 C 130.632812 195.839844 134.367188 192.105469 134.367188 187.488281 C 134.367188 182.871094 130.632812 179.132812 126.015625 179.132812 L 100.203125 179.132812 C 95.582031 179.132812 91.847656 182.871094 91.847656 187.488281 C 91.847656 192.085938 95.605469 195.839844 100.203125 195.839844 Z M 100.203125 195.839844 " fill-opacity="1" fill-rule="nonzero"/></g><g clip-path="url(#1cf8e7d3a6)"><path fill="#ffffff" d="M 134.390625 244.792969 C 134.390625 240.171875 130.65625 236.4375 126.035156 236.4375 L 100.203125 236.4375 C 95.582031 236.4375 91.847656 240.171875 91.847656 244.792969 C 91.847656 249.410156 95.582031 253.144531 100.203125 253.144531 L 126.015625 253.144531 C 130.632812 253.167969 134.390625 249.410156 134.390625 244.792969 Z M 134.390625 244.792969 " fill-opacity="1" fill-rule="nonzero"/></g><g clip-path="url(#7f4506adf5)"><path fill="#ffffff" d="M 258.632812 82.515625 L 126.214844 82.515625 C 118.941406 82.515625 113.128906 88.351562 113.128906 95.554688 L 113.128906 112.21875 L 126.035156 112.21875 C 135.914062 112.21875 143.957031 120.238281 143.957031 130.140625 C 143.957031 140.042969 135.9375 148.0625 126.035156 148.0625 L 113.128906 148.0625 L 113.128906 169.566406 L 126.035156 169.566406 C 135.914062 169.566406 143.957031 177.585938 143.957031 187.488281 C 143.957031 197.386719 135.914062 205.386719 126.015625 205.386719 L 113.109375 205.386719 L 113.109375 226.890625 L 126.015625 226.890625 C 135.890625 226.890625 143.9375 234.914062 143.9375 244.8125 C 143.9375 254.691406 135.914062 262.734375 126.015625 262.734375 L 113.109375 262.734375 L 113.109375 279.398438 C 113.109375 286.601562 118.941406 292.480469 126.191406 292.480469 L 258.609375 292.480469 C 272.132812 292.480469 283.117188 281.5 283.117188 267.929688 L 283.117188 107.046875 C 283.140625 93.5 272.15625 82.515625 258.632812 82.515625 Z M 209.152344 136.835938 C 222.898438 136.835938 234.011719 147.976562 234.011719 161.699219 C 234.011719 175.421875 222.875 186.582031 209.152344 186.582031 C 195.40625 186.582031 184.289062 175.445312 184.289062 161.71875 C 184.289062 147.996094 195.40625 136.835938 209.152344 136.835938 Z M 250.609375 231.511719 C 250.609375 235.132812 247.605469 238.09375 243.980469 238.09375 L 174.324219 238.09375 C 170.65625 238.09375 167.691406 235.132812 167.691406 231.511719 L 167.691406 226.492188 C 167.691406 211.644531 175.757812 198.605469 187.804688 191.621094 C 193.816406 195.972656 201.171875 198.492188 209.152344 198.492188 C 217.128906 198.492188 224.488281 195.953125 230.5 191.621094 C 242.542969 198.605469 250.609375 211.644531 250.609375 226.492188 Z M 250.609375 231.511719 " fill-opacity="1" fill-rule="nonzero"/></g></svg>