<svg xmlns="http://www.w3.org/2000/svg" xmlns:xlink="http://www.w3.org/1999/xlink" width="150" zoomAndPan="magnify" viewBox="0 0 112.5 112.499997" height="150" preserveAspectRatio="xMidYMid meet" version="1.0"><defs><g/><clipPath id="4a6497118a"><path d="M 0 0 L 112.003906 0 L 112.003906 112.003906 L 0 112.003906 Z M 0 0 " clip-rule="nonzero"/></clipPath><clipPath id="a20f2cbbbb"><path d="M 65 24 L 91.390625 24 L 91.390625 41 L 65 41 Z M 65 24 " clip-rule="nonzero"/></clipPath><clipPath id="78290275b4"><path d="M 65 35 L 91.390625 35 L 91.390625 46 L 65 46 Z M 65 35 " clip-rule="nonzero"/></clipPath><clipPath id="ff154a9f0b"><path d="M 74 35 L 91.390625 35 L 91.390625 53 L 74 53 Z M 74 35 " clip-rule="nonzero"/></clipPath><clipPath id="54c13298bd"><path d="M 74 52 L 91.390625 52 L 91.390625 66 L 74 66 Z M 74 52 " clip-rule="nonzero"/></clipPath><clipPath id="4484ac3d95"><path d="M 85 35 L 91.390625 35 L 91.390625 56 L 85 56 Z M 85 35 " clip-rule="nonzero"/></clipPath><clipPath id="75dc016cf8"><path d="M 74 55 L 91.390625 55 L 91.390625 77 L 74 77 Z M 74 55 " clip-rule="nonzero"/></clipPath><clipPath id="a71b87dc5c"><path d="M 82 76 L 91.390625 76 L 91.390625 82 L 82 82 Z M 82 76 " clip-rule="nonzero"/></clipPath><clipPath id="8054b02fc5"><path d="M 82 56 L 91.390625 56 L 91.390625 77 L 82 77 Z M 82 56 " clip-rule="nonzero"/></clipPath><clipPath id="98b909d2c6"><path d="M 55 66 L 75 66 L 75 97.136719 L 55 97.136719 Z M 55 66 " clip-rule="nonzero"/></clipPath><clipPath id="ebe5d2d75c"><path d="M 55 15.015625 L 63 15.015625 L 63 35 L 55 35 Z M 55 15.015625 " clip-rule="nonzero"/></clipPath><clipPath id="7bc0475da3"><path d="M 20.457031 71 L 47 71 L 47 88 L 20.457031 88 Z M 20.457031 71 " clip-rule="nonzero"/></clipPath><clipPath id="4a9dcab3e8"><path d="M 20.457031 66 L 47 66 L 47 77 L 20.457031 77 Z M 20.457031 66 " clip-rule="nonzero"/></clipPath><clipPath id="21498b61cd"><path d="M 20.457031 59 L 38 59 L 38 77 L 20.457031 77 Z M 20.457031 59 " clip-rule="nonzero"/></clipPath><clipPath id="f2e2074efb"><path d="M 20.457031 46 L 38 46 L 38 60 L 20.457031 60 Z M 20.457031 46 " clip-rule="nonzero"/></clipPath><clipPath id="91a5aa85e9"><path d="M 20.457031 56 L 27 56 L 27 77 L 20.457031 77 Z M 20.457031 56 " clip-rule="nonzero"/></clipPath><clipPath id="c4335333dc"><path d="M 20.457031 36 L 38 36 L 38 57 L 20.457031 57 Z M 20.457031 36 " clip-rule="nonzero"/></clipPath><clipPath id="021f87fca9"><path d="M 20.457031 30 L 30 30 L 30 37 L 20.457031 37 Z M 20.457031 30 " clip-rule="nonzero"/></clipPath><clipPath id="dbc3387423"><path d="M 20.457031 35 L 30 35 L 30 56 L 20.457031 56 Z M 20.457031 35 " clip-rule="nonzero"/></clipPath><clipPath id="656a407d5c"><path d="M 37 15.015625 L 56 15.015625 L 56 46 L 37 46 Z M 37 15.015625 " clip-rule="nonzero"/></clipPath><clipPath id="c99a7cf5f8"><path d="M 49 77 L 56 77 L 56 97.136719 L 49 97.136719 Z M 49 77 " clip-rule="nonzero"/></clipPath><clipPath id="5bac254fab"><path d="M 20.457031 45.960938 L 91.546875 45.960938 L 91.546875 66.640625 L 20.457031 66.640625 Z M 20.457031 45.960938 " clip-rule="nonzero"/></clipPath><clipPath id="6ef75b1d9b"><path d="M 0 97.730469 L 112.003906 97.730469 L 112.003906 112.003906 L 0 112.003906 Z M 0 97.730469 " clip-rule="nonzero"/></clipPath></defs><g clip-path="url(#4a6497118a)"><path fill="#ffffff" d="M 0 0 L 112.003906 0 L 112.003906 112.003906 L 0 112.003906 Z M 0 0 " fill-opacity="1" fill-rule="nonzero"/><path fill="#000000" d="M 0 0 L 112.003906 0 L 112.003906 112.003906 L 0 112.003906 Z M 0 0 " fill-opacity="1" fill-rule="nonzero"/></g><path fill="#eeb01e" d="M 56.675781 34.828125 L 55.9375 34.386719 L 62.328125 18.75 L 72.371094 24.574219 Z M 56.675781 34.828125 " fill-opacity="1" fill-rule="nonzero"/><path fill="#fbc515" d="M 66.007812 40.238281 L 56.410156 34.679688 L 72.105469 24.394531 L 72.988281 24.925781 Z M 66.007812 40.238281 " fill-opacity="1" fill-rule="nonzero"/><g clip-path="url(#a20f2cbbbb)"><path fill="#ed8c22" d="M 66.128906 40.296875 L 65.773438 40.089844 L 72.753906 24.777344 L 91.390625 35.597656 Z M 66.128906 40.296875 " fill-opacity="1" fill-rule="nonzero"/></g><g clip-path="url(#78290275b4)"><path fill="#ed5e27" d="M 74.488281 45.144531 L 65.746094 40.089844 L 91.390625 35.597656 Z M 74.488281 45.144531 " fill-opacity="1" fill-rule="nonzero"/></g><g clip-path="url(#ff154a9f0b)"><path fill="#ef4d24" d="M 85.503906 52.859375 L 74.695312 46.03125 L 74.695312 45.265625 L 74.195312 44.996094 L 91.390625 35.597656 Z M 85.503906 52.859375 " fill-opacity="1" fill-rule="nonzero"/></g><path fill="#ce579e" d="M 74.695312 64.742188 L 74.695312 45.265625 L 85.648438 52.625 Z M 74.695312 64.742188 " fill-opacity="1" fill-rule="nonzero"/><g clip-path="url(#54c13298bd)"><path fill="#c01f54" d="M 91.390625 56.054688 L 91.390625 54.988281 L 85.386719 52.476562 L 74.695312 64.328125 L 74.695312 65.421875 Z M 91.390625 56.054688 " fill-opacity="1" fill-rule="nonzero"/></g><g clip-path="url(#4484ac3d95)"><path fill="#f05c67" d="M 91.390625 55.3125 L 91.390625 35.597656 L 85.265625 52.710938 Z M 91.390625 55.3125 " fill-opacity="1" fill-rule="nonzero"/></g><g clip-path="url(#75dc016cf8)"><path fill="#ea3490" d="M 82.027344 76.035156 L 91.390625 57.324219 L 91.390625 55.726562 L 74.695312 65.097656 L 74.695312 66.871094 Z M 82.027344 76.035156 " fill-opacity="1" fill-rule="nonzero"/></g><path fill="#ce579e" d="M 73.078125 87.179688 L 82.027344 76.035156 L 74.695312 66.871094 L 70.425781 88.6875 Z M 73.078125 87.179688 " fill-opacity="1" fill-rule="nonzero"/><path fill="#9c226e" d="M 82.382812 81.769531 L 82.027344 76.035156 L 72.398438 87.5625 Z M 82.382812 81.769531 " fill-opacity="1" fill-rule="nonzero"/><g clip-path="url(#a71b87dc5c)"><path fill="#ea3490" d="M 91.390625 76.539062 L 82.027344 76.035156 L 82.117188 81.917969 Z M 91.390625 76.539062 " fill-opacity="1" fill-rule="nonzero"/></g><g clip-path="url(#8054b02fc5)"><path fill="#c21a7e" d="M 91.390625 76.539062 L 91.390625 56.703125 L 82.027344 76.035156 Z M 91.390625 76.539062 " fill-opacity="1" fill-rule="nonzero"/></g><g clip-path="url(#98b909d2c6)"><path fill="#c21a7e" d="M 70.75 88.507812 L 74.695312 66.871094 L 55.9375 97.109375 Z M 70.75 88.507812 " fill-opacity="1" fill-rule="nonzero"/><path fill="#ea3490" d="M 74.695312 66.871094 L 55.9375 77.75 L 55.9375 97.109375 Z M 74.695312 66.871094 " fill-opacity="1" fill-rule="nonzero"/></g><g clip-path="url(#ebe5d2d75c)"><path fill="#fbeb6f" d="M 62.5625 18.898438 L 62.535156 18.984375 L 55.9375 34.386719 L 55.9375 15.023438 Z M 62.5625 18.898438 " fill-opacity="1" fill-rule="nonzero"/></g><path fill="#564597" d="M 55.171875 77.304688 L 55.910156 77.75 L 49.519531 93.386719 L 39.480469 87.5625 Z M 55.171875 77.304688 " fill-opacity="1" fill-rule="nonzero"/><path fill="#425099" d="M 45.839844 71.894531 L 55.4375 77.453125 L 39.742188 87.738281 L 38.859375 87.207031 Z M 45.839844 71.894531 " fill-opacity="1" fill-rule="nonzero"/><g clip-path="url(#7bc0475da3)"><path fill="#2a3680" d="M 45.75 71.835938 L 46.074219 72.042969 L 39.097656 87.355469 L 20.457031 76.539062 Z M 45.75 71.835938 " fill-opacity="1" fill-rule="nonzero"/></g><g clip-path="url(#4a9dcab3e8)"><path fill="#4077b8" d="M 37.386719 66.988281 L 46.105469 72.042969 L 20.457031 76.539062 Z M 37.386719 66.988281 " fill-opacity="1" fill-rule="nonzero"/></g><g clip-path="url(#21498b61cd)"><path fill="#208cba" d="M 26.375 59.273438 L 37.152344 66.101562 L 37.152344 66.871094 L 37.652344 67.167969 L 20.457031 76.539062 Z M 26.375 59.273438 " fill-opacity="1" fill-rule="nonzero"/></g><path fill="#5fb2d1" d="M 37.183594 47.390625 L 37.152344 66.871094 L 26.226562 59.511719 Z M 37.183594 47.390625 " fill-opacity="1" fill-rule="nonzero"/><g clip-path="url(#f2e2074efb)"><path fill="#48c3d2" d="M 20.457031 56.082031 L 20.457031 57.117188 L 26.464844 59.660156 L 37.183594 47.804688 L 37.183594 46.710938 Z M 20.457031 56.082031 " fill-opacity="1" fill-rule="nonzero"/></g><g clip-path="url(#91a5aa85e9)"><path fill="#07b9e4" d="M 20.457031 56.820312 L 20.457031 76.539062 L 26.609375 59.421875 Z M 20.457031 56.820312 " fill-opacity="1" fill-rule="nonzero"/></g><g clip-path="url(#c4335333dc)"><path fill="#008c5b" d="M 29.820312 36.101562 L 20.457031 54.8125 L 20.457031 56.40625 L 37.183594 47.039062 L 37.183594 45.265625 Z M 29.820312 36.101562 " fill-opacity="1" fill-rule="nonzero"/></g><path fill="#17b37b" d="M 38.832031 24.957031 L 29.820312 36.101562 L 37.183594 45.265625 L 41.453125 23.449219 Z M 38.832031 24.957031 " fill-opacity="1" fill-rule="nonzero"/><path fill="#68c29b" d="M 29.496094 30.367188 L 29.820312 36.101562 L 39.507812 24.574219 Z M 29.496094 30.367188 " fill-opacity="1" fill-rule="nonzero"/><g clip-path="url(#021f87fca9)"><path fill="#a3d6bc" d="M 20.488281 35.566406 L 29.820312 36.101562 L 29.761719 30.1875 Z M 20.488281 35.566406 " fill-opacity="1" fill-rule="nonzero"/></g><g clip-path="url(#dbc3387423)"><path fill="#26654b" d="M 20.488281 35.566406 L 20.457031 55.433594 L 29.820312 36.101562 Z M 20.488281 35.566406 " fill-opacity="1" fill-rule="nonzero"/></g><g clip-path="url(#656a407d5c)"><path fill="#8abb3f" d="M 41.15625 23.625 L 37.183594 45.265625 L 55.9375 15.054688 Z M 41.15625 23.625 " fill-opacity="1" fill-rule="nonzero"/><path fill="#b8d232" d="M 37.183594 45.265625 L 55.9375 34.414062 L 55.9375 15.054688 Z M 37.183594 45.265625 " fill-opacity="1" fill-rule="nonzero"/></g><g clip-path="url(#c99a7cf5f8)"><path fill="#9c226e" d="M 49.285156 93.269531 L 49.3125 93.148438 L 55.910156 77.75 L 55.910156 97.109375 Z M 49.285156 93.269531 " fill-opacity="1" fill-rule="nonzero"/></g><g clip-path="url(#5bac254fab)"><path fill="#000000" d="M 20.457031 45.960938 L 91.539062 45.960938 L 91.539062 66.640625 L 20.457031 66.640625 Z M 20.457031 45.960938 " fill-opacity="1" fill-rule="nonzero"/></g><g fill="#ffffff" fill-opacity="1"><g transform="translate(34.711207, 56.612769)"><g><path d="M 8.140625 -3.90625 C 8.140625 -2.59375 7.816406 -1.59375 7.171875 -0.90625 C 6.523438 -0.226562 5.582031 0.109375 4.34375 0.109375 C 3.125 0.109375 2.1875 -0.234375 1.53125 -0.921875 C 0.875 -1.609375 0.546875 -2.609375 0.546875 -3.921875 C 0.546875 -5.210938 0.867188 -6.203125 1.515625 -6.890625 C 2.171875 -7.578125 3.117188 -7.921875 4.359375 -7.921875 C 5.597656 -7.921875 6.535156 -7.578125 7.171875 -6.890625 C 7.816406 -6.210938 8.140625 -5.21875 8.140625 -3.90625 Z M 2.765625 -3.90625 C 2.765625 -2.394531 3.289062 -1.640625 4.34375 -1.640625 C 4.875 -1.640625 5.269531 -1.820312 5.53125 -2.1875 C 5.789062 -2.5625 5.921875 -3.132812 5.921875 -3.90625 C 5.921875 -4.6875 5.789062 -5.257812 5.53125 -5.625 C 5.269531 -6 4.878906 -6.1875 4.359375 -6.1875 C 3.296875 -6.1875 2.765625 -5.425781 2.765625 -3.90625 Z M 2.765625 -3.90625 "/></g></g></g><g fill="#ffffff" fill-opacity="1"><g transform="translate(44.625086, 56.612769)"><g><path d="M 4.3125 -6.1875 C 3.8125 -6.1875 3.421875 -5.976562 3.140625 -5.5625 C 2.859375 -5.15625 2.71875 -4.585938 2.71875 -3.859375 C 2.71875 -2.359375 3.289062 -1.609375 4.4375 -1.609375 C 4.78125 -1.609375 5.113281 -1.65625 5.4375 -1.75 C 5.757812 -1.851562 6.082031 -1.972656 6.40625 -2.109375 L 6.40625 -0.328125 C 5.757812 -0.0351562 5.023438 0.109375 4.203125 0.109375 C 3.023438 0.109375 2.117188 -0.226562 1.484375 -0.90625 C 0.859375 -1.59375 0.546875 -2.582031 0.546875 -3.875 C 0.546875 -4.6875 0.695312 -5.394531 1 -6 C 1.3125 -6.613281 1.75 -7.082031 2.3125 -7.40625 C 2.882812 -7.738281 3.554688 -7.90625 4.328125 -7.90625 C 5.171875 -7.90625 5.976562 -7.722656 6.75 -7.359375 L 6.109375 -5.703125 C 5.816406 -5.835938 5.523438 -5.953125 5.234375 -6.046875 C 4.953125 -6.140625 4.644531 -6.1875 4.3125 -6.1875 Z M 4.3125 -6.1875 "/></g></g></g><g fill="#ffffff" fill-opacity="1"><g transform="translate(52.923477, 56.612769)"><g><path d="M 5.625 0 L 5.25 -1.46875 L 2.703125 -1.46875 L 2.3125 0 L 0 0 L 2.546875 -7.828125 L 5.359375 -7.828125 L 7.9375 0 Z M 4.8125 -3.1875 L 4.46875 -4.46875 C 4.394531 -4.75 4.300781 -5.113281 4.1875 -5.5625 C 4.070312 -6.019531 4 -6.347656 3.96875 -6.546875 C 3.9375 -6.359375 3.867188 -6.054688 3.765625 -5.640625 C 3.671875 -5.234375 3.460938 -4.414062 3.140625 -3.1875 Z M 4.8125 -3.1875 "/></g></g></g><g fill="#ffffff" fill-opacity="1"><g transform="translate(62.06427, 56.612769)"><g><path d="M 7.453125 -4.0625 C 7.453125 -2.757812 7.09375 -1.753906 6.375 -1.046875 C 5.664062 -0.347656 4.660156 0 3.359375 0 L 0.84375 0 L 0.84375 -7.796875 L 3.546875 -7.796875 C 4.796875 -7.796875 5.757812 -7.472656 6.4375 -6.828125 C 7.113281 -6.191406 7.453125 -5.269531 7.453125 -4.0625 Z M 5.28125 -3.984375 C 5.28125 -4.703125 5.132812 -5.234375 4.84375 -5.578125 C 4.5625 -5.921875 4.132812 -6.09375 3.5625 -6.09375 L 2.953125 -6.09375 L 2.953125 -1.734375 L 3.421875 -1.734375 C 4.054688 -1.734375 4.523438 -1.914062 4.828125 -2.28125 C 5.128906 -2.65625 5.28125 -3.222656 5.28125 -3.984375 Z M 5.28125 -3.984375 "/></g></g></g><g fill="#ffffff" fill-opacity="1"><g transform="translate(71.290367, 56.612769)"><g><path d="M 5.46875 0 L 0.84375 0 L 0.84375 -7.796875 L 5.46875 -7.796875 L 5.46875 -6.109375 L 2.953125 -6.109375 L 2.953125 -4.875 L 5.28125 -4.875 L 5.28125 -3.1875 L 2.953125 -3.1875 L 2.953125 -1.71875 L 5.46875 -1.71875 Z M 5.46875 0 "/></g></g></g><path stroke-linecap="round" transform="matrix(0.74668, 0.00158126, -0.00158126, 0.74668, 20.458631, 57.594438)" fill="none" stroke-linejoin="miter" d="M 0.999193 1.00141 L 94.20348 0.997594 " stroke="#ed8c22" stroke-width="2" stroke-opacity="1" stroke-miterlimit="4"/><g clip-path="url(#6ef75b1d9b)"><path fill="#ffffff" d="M -6.414062 97.730469 L 116.128906 97.730469 L 116.128906 114.390625 L -6.414062 114.390625 Z M -6.414062 97.730469 " fill-opacity="1" fill-rule="nonzero"/></g><g fill="#ffffff" fill-opacity="1"><g transform="translate(34.128931, 64.844499)"><g><path d="M 1.046875 0 L 0.5625 0 L 0.5625 -4.109375 L 2.859375 -4.109375 L 2.859375 -3.6875 L 1.046875 -3.6875 L 1.046875 -2.171875 L 2.75 -2.171875 L 2.75 -1.75 L 1.046875 -1.75 Z M 1.046875 0 "/></g></g></g><g fill="#ffffff" fill-opacity="1"><g transform="translate(41.698686, 64.844499)"><g><path d="M 3.65625 -4.109375 L 3.65625 -1.453125 C 3.65625 -0.984375 3.515625 -0.613281 3.234375 -0.34375 C 2.953125 -0.0703125 2.566406 0.0625 2.078125 0.0625 C 1.578125 0.0625 1.191406 -0.0703125 0.921875 -0.34375 C 0.648438 -0.613281 0.515625 -0.984375 0.515625 -1.453125 L 0.515625 -4.109375 L 1 -4.109375 L 1 -1.421875 C 1 -1.078125 1.09375 -0.8125 1.28125 -0.625 C 1.46875 -0.445312 1.742188 -0.359375 2.109375 -0.359375 C 2.453125 -0.359375 2.71875 -0.453125 2.90625 -0.640625 C 3.09375 -0.828125 3.1875 -1.09375 3.1875 -1.4375 L 3.1875 -4.109375 Z M 3.65625 -4.109375 "/></g></g></g><g fill="#ffffff" fill-opacity="1"><g transform="translate(50.486721, 64.844499)"><g><path d="M 2.875 -1.09375 C 2.875 -0.726562 2.742188 -0.441406 2.484375 -0.234375 C 2.222656 -0.0351562 1.867188 0.0625 1.421875 0.0625 C 0.929688 0.0625 0.554688 0 0.296875 -0.125 L 0.296875 -0.59375 C 0.460938 -0.519531 0.644531 -0.460938 0.84375 -0.421875 C 1.039062 -0.378906 1.238281 -0.359375 1.4375 -0.359375 C 1.757812 -0.359375 2 -0.414062 2.15625 -0.53125 C 2.3125 -0.65625 2.390625 -0.828125 2.390625 -1.046875 C 2.390625 -1.191406 2.359375 -1.304688 2.296875 -1.390625 C 2.242188 -1.484375 2.148438 -1.566406 2.015625 -1.640625 C 1.890625 -1.722656 1.691406 -1.8125 1.421875 -1.90625 C 1.035156 -2.039062 0.757812 -2.203125 0.59375 -2.390625 C 0.425781 -2.578125 0.34375 -2.820312 0.34375 -3.125 C 0.34375 -3.445312 0.460938 -3.695312 0.703125 -3.875 C 0.941406 -4.0625 1.257812 -4.15625 1.65625 -4.15625 C 2.0625 -4.15625 2.4375 -4.082031 2.78125 -3.9375 L 2.625 -3.53125 C 2.289062 -3.664062 1.960938 -3.734375 1.640625 -3.734375 C 1.390625 -3.734375 1.191406 -3.675781 1.046875 -3.5625 C 0.898438 -3.457031 0.828125 -3.3125 0.828125 -3.125 C 0.828125 -2.976562 0.851562 -2.859375 0.90625 -2.765625 C 0.957031 -2.679688 1.046875 -2.597656 1.171875 -2.515625 C 1.296875 -2.441406 1.488281 -2.359375 1.75 -2.265625 C 2.175781 -2.117188 2.46875 -1.957031 2.625 -1.78125 C 2.789062 -1.601562 2.875 -1.375 2.875 -1.09375 Z M 2.875 -1.09375 "/></g></g></g><g fill="#ffffff" fill-opacity="1"><g transform="translate(58.244552, 64.844499)"><g><path d="M 0.5625 0 L 0.5625 -4.109375 L 1.046875 -4.109375 L 1.046875 0 Z M 0.5625 0 "/></g></g></g><g fill="#ffffff" fill-opacity="1"><g transform="translate(64.450056, 64.844499)"><g><path d="M 4.125 -2.0625 C 4.125 -1.40625 3.957031 -0.882812 3.625 -0.5 C 3.289062 -0.125 2.832031 0.0625 2.25 0.0625 C 1.644531 0.0625 1.175781 -0.117188 0.84375 -0.484375 C 0.507812 -0.859375 0.34375 -1.382812 0.34375 -2.0625 C 0.34375 -2.726562 0.507812 -3.242188 0.84375 -3.609375 C 1.175781 -3.984375 1.644531 -4.171875 2.25 -4.171875 C 2.84375 -4.171875 3.300781 -3.984375 3.625 -3.609375 C 3.957031 -3.234375 4.125 -2.71875 4.125 -2.0625 Z M 0.859375 -2.0625 C 0.859375 -1.5 0.972656 -1.070312 1.203125 -0.78125 C 1.441406 -0.5 1.789062 -0.359375 2.25 -0.359375 C 2.695312 -0.359375 3.035156 -0.5 3.265625 -0.78125 C 3.503906 -1.070312 3.625 -1.5 3.625 -2.0625 C 3.625 -2.613281 3.503906 -3.03125 3.265625 -3.3125 C 3.035156 -3.601562 2.695312 -3.75 2.25 -3.75 C 1.789062 -3.75 1.441406 -3.601562 1.203125 -3.3125 C 0.972656 -3.019531 0.859375 -2.601562 0.859375 -2.0625 Z M 0.859375 -2.0625 "/></g></g></g><g fill="#ffffff" fill-opacity="1"><g transform="translate(73.530028, 64.844499)"><g><path d="M 3.765625 0 L 3.21875 0 L 0.984375 -3.4375 L 0.953125 -3.4375 C 0.984375 -3.039062 1 -2.671875 1 -2.328125 L 1 0 L 0.5625 0 L 0.5625 -4.109375 L 1.109375 -4.109375 L 3.34375 -0.671875 L 3.359375 -0.671875 C 3.359375 -0.722656 3.347656 -0.882812 3.328125 -1.15625 C 3.316406 -1.4375 3.316406 -1.632812 3.328125 -1.75 L 3.328125 -4.109375 L 3.765625 -4.109375 Z M 3.765625 0 "/></g></g></g><g fill="#000000" fill-opacity="1"><g transform="translate(37.604742, 109.463482)"><g><path d="M 4.71875 -6.765625 C 4.175781 -6.765625 3.75 -6.539062 3.4375 -6.09375 C 3.132812 -5.644531 2.984375 -5.023438 2.984375 -4.234375 C 2.984375 -2.585938 3.601562 -1.765625 4.84375 -1.765625 C 5.226562 -1.765625 5.597656 -1.816406 5.953125 -1.921875 C 6.304688 -2.023438 6.660156 -2.15625 7.015625 -2.3125 L 7.015625 -0.359375 C 6.304688 -0.046875 5.5 0.109375 4.59375 0.109375 C 3.3125 0.109375 2.328125 -0.257812 1.640625 -1 C 0.953125 -1.75 0.609375 -2.832031 0.609375 -4.25 C 0.609375 -5.125 0.773438 -5.894531 1.109375 -6.5625 C 1.441406 -7.238281 1.921875 -7.753906 2.546875 -8.109375 C 3.171875 -8.472656 3.90625 -8.65625 4.75 -8.65625 C 5.664062 -8.65625 6.546875 -8.453125 7.390625 -8.046875 L 6.6875 -6.234375 C 6.363281 -6.390625 6.046875 -6.515625 5.734375 -6.609375 C 5.421875 -6.710938 5.082031 -6.765625 4.71875 -6.765625 Z M 4.71875 -6.765625 "/></g></g><g transform="translate(45.357394, 109.463482)"><g><path d="M 8.234375 0 L 5.921875 0 L 5.921875 -3.484375 L 3.234375 -3.484375 L 3.234375 0 L 0.921875 0 L 0.921875 -8.53125 L 3.234375 -8.53125 L 3.234375 -5.375 L 5.921875 -5.375 L 5.921875 -8.53125 L 8.234375 -8.53125 Z M 8.234375 0 "/></g></g><g transform="translate(54.510075, 109.463482)"><g><path d="M 0.921875 0 L 0.921875 -8.53125 L 3.234375 -8.53125 L 3.234375 0 Z M 0.921875 0 "/></g></g><g transform="translate(58.669323, 109.463482)"><g><path d="M 0.921875 0 L 0.921875 -8.53125 L 3.234375 -8.53125 L 3.234375 -1.859375 L 6.515625 -1.859375 L 6.515625 0 Z M 0.921875 0 "/></g></g><g transform="translate(65.622793, 109.463482)"><g><path d="M 8.171875 -4.453125 C 8.171875 -3.023438 7.773438 -1.925781 6.984375 -1.15625 C 6.203125 -0.382812 5.101562 0 3.6875 0 L 0.921875 0 L 0.921875 -8.53125 L 3.875 -8.53125 C 5.25 -8.53125 6.304688 -8.179688 7.046875 -7.484375 C 7.796875 -6.785156 8.171875 -5.773438 8.171875 -4.453125 Z M 5.765625 -4.359375 C 5.765625 -5.140625 5.609375 -5.71875 5.296875 -6.09375 C 4.992188 -6.476562 4.53125 -6.671875 3.90625 -6.671875 L 3.234375 -6.671875 L 3.234375 -1.890625 L 3.734375 -1.890625 C 4.441406 -1.890625 4.957031 -2.09375 5.28125 -2.5 C 5.601562 -2.90625 5.765625 -3.523438 5.765625 -4.359375 Z M 5.765625 -4.359375 "/></g></g></g></svg>